<?xml version="1.0" encoding="UTF-8"?>
<svg width="367px" height="216px" viewBox="0 0 367 216" version="1.1" xmlns="http://www.w3.org/2000/svg" xmlns:xlink="http://www.w3.org/1999/xlink">
    <!-- Generator: Sketch 57.1 (83088) - https://sketch.com -->
    <title>terms-grid-cell</title>
    <desc>Created with Sketch.</desc>
    <g id="Page-1" stroke="none" stroke-width="1" fill="none" fill-rule="evenodd">
        <g id="terms-grid-cell" fill-rule="nonzero">
            <path d="M365.36,17.61 C365.48,12.9 383.47,-4.49 264.5,4.91 C202.87,-5.53 79.71,11.81 42,3.7 C31.19,-1.59 -5.95,-1.39 1.61,32.7 C-2.59,62.27 3.55,86.59 1.85,151.45 C9.85,184.39 -5.95,189.31 3.85,210.26 C23.58,212.12 42.57,208.77 62.31,210.43 C82.05,212.09 226.38,220.36 306.92,211.22 C366.52,221.39 358.36,209.68 364.92,195.12 C371,152 357.34,148.94 365.36,17.61 Z" id="Path" fill="#C9C9C9"></path>
            <path d="M247.09,86.27 C235.99,28.39 262.64,-2.22 236.09,0.63 C213.26,12.63 153.32,2.46 136.39,2.54 C129.39,2.54 112.17,9.17 124.06,29.64 C128.86,78.24 110.59,106.77 126.94,108.89 C146.06,109.23 221.59,109.66 226.15,109.74 C247.21,111.8 248.89,93.43 247.09,86.27 L247.09,86.27 Z" id="Path" fill="#F55A5F"></path>
            <path d="M123.61,2 C122.06,24.51 122.45,108 122.48,127 C122.48,151.3 123.25,208.72 123.31,211.73 C123.31,212.436924 123.883076,213.01 124.59,213.01 C125.296924,213.01 125.87,212.436924 125.87,211.73 C124.87,167.06 126.56,27.14 125.56,2.03 C125.56,1.47771525 125.112285,1.03 124.56,1.03 C124.007715,1.03 123.56,1.47771525 123.56,2.03 L123.61,2 Z" id="Path" fill="#1E1E1E"></path>
            <path d="M361.38,105.45 C308.28,103.93 15.91,106.78 4.64,106.89 C3.94412127,106.89 3.38000015,107.454121 3.38000015,108.15 C3.38000015,108.845879 3.94412127,109.41 4.64,109.41 C36.64,109.09 221.47,107.63 281.92,107.47 C308.41,107.4 334.92,107.59 361.38,107.38 C361.81549,107.261651 362.11775,106.866285 362.11775,106.415 C362.11775,105.963715 361.81549,105.568349 361.38,105.45 L361.38,105.45 Z" id="Path" fill="#1E1E1E"></path>
            <path d="M365.67,192.93 C365.74,187.58 365.35,27.11 365.34,20.81 C365.34,14.02 367.49,3.31 358.48,2 C347.78,0.45 336.48,1 325.67,1 C308.45,1 25.67,1 22.22,1.1 C15.78,1.2 5.6,0.23 4,8.51 C3.98465546,8.59598747 3.98465546,8.68401253 4,8.77 C2.9,20.93 3.78,33.57 3.72,45.77 C3.6,70.62 3.14,190.53 3.15,194.33 C3.15,198.78 2.48,204.44 4.49,208.58 C5.49,210.58 6.75,211.1 8.86,211.63 C14.0555723,212.821171 19.369635,213.418333 24.7,213.41 C52.82,213.71 315.09,212.94 342.81,212.27 C349.37,212.11 362.58,214.17 364.86,205.73 C365.93,201.8 365.61,197 365.67,192.93 L365.67,192.93 Z M363.42,193.93 C363.21,200.93 363.48,208.86 354.53,209.62 C348.85,210.11 331.82,210.1 329.08,210.11 L27.43,211.11 C21.8813949,211.169883 16.3397004,210.701099 10.88,209.71 C5.33,208.71 5.47,203.94 5.36,199.17 L5.36,193.28 C5.25,179 5.2,62.4 5.35,18.48 C5.35,15.34 5.16,12.09 5.42,8.95 C7.28,-0.05 24.91,2.95 31.71,3 L337.53,3.15 C343.44,3.15 358.41,3.86 359.64,4.35 C363.55,5.9 363.44,10.78 363.34,14.26 C363.34,15.76 364.08,154.38 363.4,193.14 C363.41,193.39 363.43,193.67 363.42,194 L363.42,193.93 Z" id="Shape" fill="#1E1E1E"></path>
            <path d="M243.3,4.5 C242.2,26.9 243.2,49.57 243.19,72.01 C243.19,90.67 242.5,207.01 242.46,209.8 C242.46,210.506924 243.033076,211.08 243.74,211.08 C244.446924,211.08 245.02,210.506924 245.02,209.8 C245.64,167.41 246.72,29.38 245.25,4.5 C245.146303,4.04499206 244.741675,3.72220486 244.275,3.72220486 C243.808325,3.72220486 243.403697,4.04499206 243.3,4.5 Z" id="Path" fill="#1E1E1E"></path>
        </g>
    </g>
</svg>