<?xml version="1.0" encoding="UTF-8"?>
<svg width="367px" height="215px" viewBox="0 0 367 215" version="1.1" xmlns="http://www.w3.org/2000/svg" xmlns:xlink="http://www.w3.org/1999/xlink">
    <!-- Generator: Sketch 57.1 (83088) - https://sketch.com -->
    <title>terms-grid-item</title>
    <desc>Created with Sketch.</desc>
    <g id="Page-1" stroke="none" stroke-width="1" fill="none" fill-rule="evenodd">
        <g id="terms-grid-item">
            <path d="M365.36,16.91 C365.48,12.2 383.47,-5.2 264.5,4.21 C202.87,-6.23 79.71,11.11 42,3 C31.21,-2.29 -5.93,-2.09 1.63,32 C-2.57,61.57 3.57,85.89 1.87,150.75 C9.87,183.69 -5.93,188.61 3.87,209.56 C23.6,211.42 42.59,208.07 62.33,209.73 C82.07,211.39 226.4,219.66 306.94,210.51 C366.542722,220.69 358.38,208.98 364.94,194.42 C371,151.34 357.34,148.24 365.36,16.91 Z" id="Path" fill="#C9C9C9" fill-rule="nonzero"></path>
            <path d="M123.61,1.29 C122.06,23.8 122.45,107.29 122.48,126.29 C122.48,150.59 123.25,208.01 123.31,211.02 C123.31,211.726924 123.883076,212.3 124.59,212.3 C125.296924,212.3 125.87,211.726924 125.87,211.02 C124.87,166.35 126.56,26.43 125.56,1.32 C125.56,0.76771525 125.112285,0.32 124.56,0.32 C124.007715,0.32 123.56,0.76771525 123.56,1.32 L123.61,1.29 Z" id="Path" fill="#1E1E1E" fill-rule="nonzero"></path>
            <path d="M361.38,104.75 C308.28,103.23 15.91,106.08 4.64,106.19 C3.9901671,106.248065 3.49213831,106.792578 3.49213831,107.445 C3.49213831,108.097422 3.9901671,108.641935 4.64,108.7 C36.64,108.39 221.47,106.93 281.92,106.77 C308.41,106.69 334.92,106.89 361.38,106.67 C361.806667,106.545556 362.1,106.154444 362.1,105.71 C362.1,105.265556 361.806667,104.874444 361.38,104.75 L361.38,104.75 Z" id="Path" fill="#1E1E1E" fill-rule="nonzero"></path>
            <path d="M365.67,192.23 C365.74,186.88 365.35,26.41 365.34,20.1 C365.34,13.32 367.49,2.61 358.48,1.3 C347.78,-0.25 336.48,0.3 325.67,0.3 C308.45,0.3 25.67,0.35 22.22,0.4 C15.78,0.5 5.6,-0.47 4,7.81 C3.98465546,7.89598747 3.98465546,7.98401253 4,8.07 C2.9,20.22 3.78,32.87 3.72,45.07 C3.6,69.92 3.14,189.83 3.15,193.62 C3.15,198.08 2.48,203.74 4.49,207.88 C5.49,209.88 6.75,210.4 8.86,210.88 C14.0551116,212.07279 19.3697415,212.66666 24.7,212.65 C52.82,212.96 315.09,212.19 342.81,211.51 C349.37,211.35 362.58,213.42 364.86,204.98 C365.93,201.1 365.61,196.32 365.67,192.23 L365.67,192.23 Z M363.42,193.23 C363.21,200.23 363.48,208.16 354.53,208.92 C348.85,209.41 331.82,209.4 329.08,209.41 L27.43,210.41 C21.8810763,210.466584 16.3393793,209.994451 10.88,209 C5.33,208 5.47,203.23 5.36,198.46 L5.36,192.57 C5.28021734,178.22 5.23,61.66 5.36,17.74 C5.36,14.6 5.17,11.35 5.43,8.21 C7.29,-0.79 24.92,2.21 31.72,2.26 L337.54,2.41 C343.45,2.41 358.42,3.12 359.65,3.61 C363.56,5.16 363.45,10.04 363.35,13.52 C363.35,15.02 364.09,153.64 363.41,192.4 C363.41,192.69 363.43,193 363.42,193.26 L363.42,193.23 Z" id="Shape" fill="#1E1E1E" fill-rule="nonzero"></path>
            <path d="M244.318323,3.19 C243.736141,14.93 244.14949,26.95 244.155312,38.74 C244.155312,49.39 243.63717,202.74 243.642992,205.48 C243.642992,206.21 243.707032,209.02 243.712854,208.48 C243.712854,211.23 246.169662,211.23 246.19295,208.48 C246.25543,207.704009 246.294295,206.922948 246.309386,206.14 C246.367604,203.93 246.583012,54.97 246.553902,43.33 C246.51315,30.03 246.943964,16.42 246.210415,3.18 C246.171651,2.331862 245.759659,1.67757351 245.264369,1.67757351 C244.769079,1.67757351 244.357087,2.331862 244.318323,3.18 L244.318323,3.19 Z" id="Path" fill="#1E1E1E" fill-rule="nonzero"></path>
            <path d="M150,7 L224,7 C229.522847,7 234,11.4771525 234,17 L234,85 C234,91.627417 228.627417,97 222,97 L150,97 C141.163444,97 134,89.836556 134,81 L134,23 C134,14.163444 141.163444,7 150,7 Z" id="Rectangle" fill="#F55A5F" fill-rule="nonzero"></path>
            <text id="&lt;span&gt;" fill="#D7D7D7" font-family="Lato-Bold, Lato" font-size="10" font-weight="bold">
                <tspan x="170" y="55">&lt;span&gt;</tspan>
            </text>
        </g>
    </g>
</svg>