<?xml version="1.0" encoding="UTF-8"?>
<svg width="367px" height="313px" viewBox="0 0 367 313" version="1.1" xmlns="http://www.w3.org/2000/svg" xmlns:xlink="http://www.w3.org/1999/xlink">
    <!-- Generator: Sketch 57.1 (83088) - https://sketch.com -->
    <title>terms-grid-item</title>
    <desc>Created with Sketch.</desc>
    <g id="Page-1" stroke="none" stroke-width="1" fill="none" fill-rule="evenodd">
        <g id="terms-grid-item">
            <path d="M365.36,24.4072679 C365.48,17.5491871 383.47,-7.78639782 264.5,5.91520302 C202.87,-9.28614797 79.71,15.9620729 42,4.15336061 C31.21,-3.54923965 -5.93,-3.25802603 1.63,46.3793356 C-2.57,89.4352693 3.57,124.846846 1.87,219.287423 C9.87,267.250306 -5.93,274.414161 3.87,304.918788 C23.6,307.627074 42.59,302.749246 62.33,305.166319 C82.07,307.583392 226.4,319.625076 306.94,306.302052 C366.542722,321.124826 358.38,304.074268 364.94,282.873917 C371,220.146503 357.34,215.632692 365.36,24.4072679 Z" id="Path" fill="#C9C9C9" fill-rule="nonzero"></path>
            <path d="M123.61,1.74310595 C122.06,34.7679668 122.45,157.257777 122.48,185.133048 C122.48,220.784053 123.25,305.026057 123.31,309.442087 C123.31,310.479229 123.883076,311.32 124.59,311.32 C125.296924,311.32 125.87,310.479229 125.87,309.442087 C124.87,243.905857 126.56,38.6264912 125.56,1.78711954 C125.56,0.976851791 125.112285,0.32 124.56,0.32 C124.007715,0.32 123.56,0.976851791 123.56,1.78711954 L123.61,1.74310595 Z" id="Path" fill="#1E1E1E" fill-rule="nonzero"></path>
            <path d="M361.38,104.75 C308.28,103.23 15.91,106.08 4.64,106.19 C3.9901671,106.248065 3.49213831,106.792578 3.49213831,107.445 C3.49213831,108.097422 3.9901671,108.641935 4.64,108.7 C36.64,108.39 221.47,106.93 281.92,106.77 C308.41,106.69 334.92,106.89 361.38,106.67 C361.806667,106.545556 362.1,106.154444 362.1,105.71 C362.1,105.265556 361.806667,104.874444 361.38,104.75 L361.38,104.75 Z" id="Path" fill="#1E1E1E" fill-rule="nonzero"></path>
            <path d="M361.38,206.75 C308.28,205.23 15.91,208.08 4.64,208.19 C3.9901671,208.248065 3.49213831,208.792578 3.49213831,209.445 C3.49213831,210.097422 3.9901671,210.641935 4.64,210.7 C36.64,210.39 221.47,208.93 281.92,208.77 C308.41,208.69 334.92,208.89 361.38,208.67 C361.806667,208.545556 362.1,208.154444 362.1,207.71 C362.1,207.265556 361.806667,206.874444 361.38,206.75 L361.38,206.75 Z" id="Path-Copy" fill="#1E1E1E" fill-rule="nonzero"></path>
            <path d="M365.991587,281.917054 C366.061658,274.062566 365.671266,38.4719678 365.661256,29.2080763 C365.661256,19.2541644 367.813416,3.53050697 358.794363,1.60725849 C348.083611,-0.668340854 336.772256,0.139129881 325.951393,0.139129881 C308.71409,0.139129881 25.649937,0.212536311 22.1964703,0.285942742 C15.749999,0.432755603 5.55976961,-0.991329148 3.95816185,11.1647757 C3.94280189,11.2910164 3.94280189,11.4202485 3.95816185,11.5464892 C2.85705651,29.3842518 3.73794078,47.9560787 3.67788049,65.8672477 C3.5577599,102.350244 3.09729767,278.393545 3.10730772,283.957752 C3.10730772,290.505606 2.43663447,298.815214 4.44865422,304.893266 C5.44965908,307.829524 6.7109252,308.592951 8.82304544,309.297652 C14.0233774,311.048821 19.3433477,311.920699 24.6789623,311.89624 C52.8272188,312.35136 315.360762,311.220901 343.108616,310.222573 C349.675208,309.987673 362.898482,313.026699 365.180774,300.635693 C366.251849,294.939354 365.931527,287.9217 365.991587,281.917054 L365.991587,281.917054 Z M362.722909,283.718177 C362.513153,294.016546 362.782839,305.683127 353.843256,306.801235 C348.169867,307.522121 331.159689,307.507409 328.422879,307.522121 L27.1239839,308.993317 C21.5815189,309.076563 16.0462721,308.381963 10.5932472,306.918931 C5.04970717,305.447735 5.18954421,298.430133 5.07967225,291.41253 L5.07967225,282.747188 C5,261.635532 4.94982356,90.1529781 5.07967225,25.5380693 C5.07967225,20.9185153 4.8898934,16.1371297 5.14959077,11.5175757 C7.00742583,-1.72318429 24.6169054,2.69040237 31.4089905,2.76396215 L336.873032,2.98464148 C342.776153,2.98464148 357.728728,4.02919032 358.957297,4.75007615 C362.862746,7.03042926 362.752874,14.2098636 362.65299,19.3296241 C362.65299,21.5364174 363.392129,225.473545 362.71292,282.497085 C362.71292,282.923732 362.732897,283.379802 362.722909,283.762313 L362.722909,283.718177 Z" id="Shape" fill="#1E1E1E" fill-rule="nonzero"></path>
            <path d="M244.318323,3.91509511 C243.736141,21.283545 244.14949,39.0662338 244.155312,56.5086549 C244.155312,72.2645315 243.63717,299.13436 243.642992,303.187984 C243.642992,304.267965 243.707032,308.425149 243.712854,307.626259 C243.712854,311.694678 246.169662,311.694678 246.19295,307.626259 C246.25543,306.478239 246.294295,305.322718 246.309386,304.164405 C246.367604,300.894876 246.583012,80.5197231 246.553902,63.2992158 C246.51315,43.6228629 246.943964,23.4878883 246.210415,3.90030086 C246.171651,2.64554428 245.759659,1.67757351 245.264369,1.67757351 C244.769079,1.67757351 244.357087,2.64554428 244.318323,3.90030086 L244.318323,3.91509511 Z" id="Path" fill="#1E1E1E" fill-rule="nonzero"></path>
            <g id="Group" transform="translate(11.000000, 11.000000)">
                <rect id="Rectangle" stroke="#979797" fill="#F55A5F" x="0" y="1" width="107" height="191"></rect>
                <text id="sidebar-1" font-family="Lato-Bold, Lato" font-size="10" font-weight="bold" fill="#FFFFFF">
                    <tspan x="32" y="101">sidebar-1</tspan>
                </text>
                <rect id="Rectangle-Copy-3" stroke="#979797" fill="#F55A5F" x="120" y="1" width="107" height="191"></rect>
                <rect id="Rectangle-Copy-2" stroke="#979797" fill="#F55A5F" x="0" y="204" width="347" height="86"></rect>
                <text id="content" font-family="Lato-Bold, Lato" font-size="10" font-weight="bold" fill="#FFFFFF">
                    <tspan x="156" y="99">content</tspan>
                </text>
                <text id="footer" font-family="Lato-Bold, Lato" font-size="10" font-weight="bold" fill="#FFFFFF">
                    <tspan x="156" y="247">footer</tspan>
                </text>
                <rect id="Rectangle-Copy" stroke="#979797" fill="#F55A5F" x="240" y="0" width="107" height="191"></rect>
                <text id="sidebar-2" font-family="Lato-Bold, Lato" font-size="10" font-weight="bold" fill="#FFFFFF">
                    <tspan x="272" y="99">sidebar-2</tspan>
                </text>
            </g>
        </g>
    </g>
</svg>