<?xml version="1.0" encoding="UTF-8"?>
<svg width="368px" height="216px" viewBox="0 0 368 216" version="1.1" xmlns="http://www.w3.org/2000/svg" xmlns:xlink="http://www.w3.org/1999/xlink">
    <!-- Generator: Sketch 57.1 (83088) - https://sketch.com -->
    <title>terms-grid-area</title>
    <desc>Created with Sketch.</desc>
    <g id="Page-1" stroke="none" stroke-width="1" fill="none" fill-rule="evenodd">
        <g id="terms-grid-area" fill-rule="nonzero">
            <path d="M366.36,17.58 C366.48,12.87 384.47,-4.52 265.5,4.89 C203.87,-5.55 80.71,11.78 43,3.67 C32.19,-1.62 -4.95,-1.42 2.61,32.67 C-1.59,62.23 4.55,86.56 2.85,151.42 C10.85,184.36 -4.95,189.27 4.85,210.22 C24.58,212.09 43.57,208.74 63.31,210.4 C83.05,212.06 227.38,220.32 307.92,211.18 C367.52,221.36 359.36,209.64 365.92,195.08 C372,152 358.34,148.91 366.36,17.58 Z" id="Path" fill="#C9C9C9"></path>
            <path d="M246.48,192.19 C249.97,183.61 245.92,23.06 246,22.52 C249.34,18.52 249.67,-0.97 243.45,0.9 C226.08,6.12 15.56,0.4 12.63,2.28 C7.44,5.61 -1.86,14.16 4,26.56 C-0.84,34.56 1.29,44.39 3.56,53.56 C4.83,58.73 0.47,137.93 3.56,157.41 C11.15,186.15 -13.91,211.51 16.08,214.41 C90.53,211.98 178.16,219.32 179.82,212.58 C190.82,216.64 224.47,212.35 236.01,214.84 C247.06,217.26 247.57,197.56 246.48,192.19 L246.48,192.19 Z" id="Path" fill="#F55A5F"></path>
            <path d="M124.61,2 C123.06,24.51 123.45,108 123.48,127 C123.48,151.3 124.25,208.73 124.31,211.74 C124.31,212.446924 124.883076,213.02 125.59,213.02 C126.296924,213.02 126.87,212.446924 126.87,211.74 C125.87,167.07 127.56,27.14 126.56,2.04 C126.56,1.48771525 126.112285,1.04 125.56,1.04 C125.007715,1.04 124.56,1.48771525 124.56,2.04 L124.61,2 Z" id="Path" fill="#1E1E1E"></path>
            <path d="M362.38,105.43 C309.28,103.91 16.91,106.75 5.64,106.87 C4.9901671,106.928065 4.49213831,107.472578 4.49213831,108.125 C4.49213831,108.777422 4.9901671,109.321935 5.64,109.38 C37.64,109.06 222.47,107.6 282.92,107.44 C309.41,107.37 335.92,107.57 362.38,107.35 C362.806667,107.225556 363.1,106.834444 363.1,106.39 C363.1,105.945556 362.806667,105.554444 362.38,105.43 L362.38,105.43 Z" id="Path" fill="#1E1E1E"></path>
            <path d="M366.67,192.91 C366.74,187.55 366.35,27.08 366.34,20.78 C366.34,14 368.49,3.29 359.48,1.98 C348.78,0.42 337.48,0.98 326.67,0.98 C309.45,0.98 26.67,0.98 23.22,1.07 C16.78,1.17 6.6,0.2 5.01,8.48 C4.99506538,8.56602327 4.99506538,8.65397673 5.01,8.74 C3.91,20.89 4.79,33.54 4.73,45.74 C4.61,70.59 4.15,190.5 4.16,194.29 C4.16,198.75 3.49,204.41 5.5,208.55 C6.5,210.55 7.76,211.07 9.87,211.55 C15.0655723,212.741171 20.379635,213.338333 25.71,213.33 C53.83,213.64 316.1,212.87 343.82,212.19 C350.38,212.03 363.59,214.1 365.87,205.66 C366.93,201.78 366.61,197 366.67,192.91 L366.67,192.91 Z M364.42,193.91 C364.21,200.91 364.48,208.84 355.53,209.61 C349.85,210.1 332.82,210.09 330.08,210.1 L28.43,211.1 C22.8808942,211.161482 17.3387302,210.68931 11.88,209.69 C6.33,208.69 6.47,203.93 6.36,199.16 L6.36,193.26 C6.2801637,178.91 6.23,62.36 6.36,18.43 C6.36,15.29 6.17,12.05 6.43,8.91 L6.43,8.86 C8.29,-0.14 25.92,2.86 32.72,2.91 L338.54,3.06 C344.45,3.06 359.42,3.78 360.65,4.26 C364.56,5.81 364.45,10.69 364.35,14.18 C364.35,15.67 365.09,154.3 364.41,193.05 C364.41,193.36 364.43,193.65 364.42,193.93 L364.42,193.91 Z" id="Shape" fill="#1E1E1E"></path>
            <path d="M244.3,4.47 C243.2,26.87 244.2,49.55 244.19,71.98 C244.19,90.64 243.5,206.98 243.46,209.78 C243.46,210.486924 244.033076,211.06 244.74,211.06 C245.446924,211.06 246.02,210.486924 246.02,209.78 C246.64,167.38 247.72,29.35 246.25,4.47 C246.146303,4.01499206 245.741675,3.69220486 245.275,3.69220486 C244.808325,3.69220486 244.403697,4.01499206 244.3,4.47 Z" id="Path" fill="#1E1E1E"></path>
        </g>
    </g>
</svg>