<?xml version="1.0" encoding="UTF-8"?>
<svg width="367px" height="216px" viewBox="0 0 367 216" version="1.1" xmlns="http://www.w3.org/2000/svg" xmlns:xlink="http://www.w3.org/1999/xlink">
    <!-- Generator: Sketch 57.1 (83088) - https://sketch.com -->
    <title>terms-grid-track</title>
    <desc>Created with Sketch.</desc>
    <g id="Page-1" stroke="none" stroke-width="1" fill="none" fill-rule="evenodd">
        <g id="terms-grid-track" fill-rule="nonzero">
            <path d="M365.36,17.54 C365.48,12.83 383.47,-4.56 264.5,4.84 C202.87,-5.6 79.71,11.74 42,3.63 C31.19,-1.66 -5.95,-1.46 1.61,32.63 C-2.59,62.2 3.55,86.52 1.85,151.39 C9.85,184.33 -5.95,189.24 3.85,210.19 C23.58,212.05 42.57,208.71 62.31,210.37 C82.05,212.03 226.38,220.29 306.92,211.15 C366.52,221.33 358.36,209.61 364.92,195.05 C371,152 357.34,148.87 365.36,17.54 Z" id="Path" fill="#C9C9C9"></path>
            <path d="M366.43,189.25 C362.91,180.05 365.43,119.44 365.33,118.25 C364.77,110.16 359.02,108.44 351.99,107.93 C340.26,107.08 268.99,106.75 244.99,108.93 C221.61,111.1 41.61,105.58 15.07,107.54 C7.98,108.06 -3.93,116.65 2.39,134.62 C1.45,137.73 1.99,203.62 4.69,209.62 C7.46,215.8 13.37,215.15 19.04,214.62 C25.39,214.05 88.12,209.73 113.17,209.22 C138.87,208.7 271.65,218.72 350.9,211.8 C356,211.73 368.61,203.73 366.43,189.25 L366.43,189.25 Z" id="Path" fill="#F55A5F"></path>
            <path d="M123.61,1.93 C122.06,24.44 122.45,107.93 122.48,126.93 C122.48,151.23 123.25,208.65 123.31,211.67 C123.31,212.376924 123.883076,212.95 124.59,212.95 C125.296924,212.95 125.87,212.376924 125.87,211.67 C124.87,166.99 126.56,27.07 125.56,1.97 C125.56,1.41771525 125.112285,0.97 124.56,0.97 C124.007715,0.97 123.56,1.41771525 123.56,1.97 L123.61,1.93 Z" id="Path" fill="#1E1E1E"></path>
            <path d="M361.38,105.39 C308.28,103.87 15.91,106.71 4.64,106.83 C3.9901671,106.888065 3.49213831,107.432578 3.49213831,108.085 C3.49213831,108.737422 3.9901671,109.281935 4.64,109.34 C36.64,109.02 221.47,107.56 281.92,107.4 C308.41,107.33 334.92,107.52 361.38,107.31 C361.806667,107.185556 362.1,106.794444 362.1,106.35 C362.1,105.905556 361.806667,105.514444 361.38,105.39 L361.38,105.39 Z" id="Path" fill="#1E1E1E"></path>
            <path d="M365.67,192.87 C365.74,187.51 365.35,27.04 365.34,20.74 C365.34,13.95 367.49,3.24 358.48,1.93 C347.78,0.38 336.48,0.93 325.67,0.93 C308.45,0.93 25.67,0.93 22.22,1.02 C15.78,1.12 5.6,0.15 4.01,8.43 C3.99477744,8.51263815 3.99477744,8.59736185 4.01,8.68 C2.91,20.84 3.79,33.49 3.73,45.68 C3.61,70.52 3.15,190.44 3.16,194.23 C3.16,198.69 2.49,204.35 4.5,208.48 C5.5,210.48 6.76,211.01 8.87,211.53 C14.0655723,212.721171 19.379635,213.318333 24.71,213.31 C52.83,213.61 315.1,212.84 342.82,212.17 C349.38,212.01 362.59,214.08 364.87,205.64 C365.93,201.74 365.61,197 365.67,192.87 L365.67,192.87 Z M363.42,193.87 C363.21,200.87 363.48,208.8 354.53,209.57 C348.85,210.05 331.82,210.05 329.08,210.06 L27.43,211.06 C21.8808942,211.121482 16.3387302,210.64931 10.88,209.65 C5.33,208.65 5.47,203.89 5.36,199.12 L5.36,193.22 C5.2801637,178.87 5.23,62.32 5.36,18.39 C5.36,15.25 5.17,12 5.43,8.87 L5.43,8.82 C7.29,-0.18 24.92,2.82 31.72,2.87 L337.55,3 C343.46,3 358.43,3.72 359.66,4.2 C363.57,5.75 363.46,10.63 363.36,14.12 C363.36,15.61 364.1,154.23 363.42,192.99 C363.41,193.32 363.43,193.61 363.42,193.89 L363.42,193.87 Z" id="Shape" fill="#1E1E1E"></path>
            <path d="M243.3,4.43 C242.2,26.83 243.2,49.51 243.19,71.94 C243.19,90.6 242.5,206.94 242.46,209.74 C242.46,210.446924 243.033076,211.02 243.74,211.02 C244.446924,211.02 245.02,210.446924 245.02,209.74 C245.64,167.34 246.72,29.31 245.25,4.43 C245.146303,3.97499206 244.741675,3.65220486 244.275,3.65220486 C243.808325,3.65220486 243.403697,3.97499206 243.3,4.43 Z" id="Path" fill="#1E1E1E"></path>
        </g>
    </g>
</svg>