<?xml version="1.0" encoding="UTF-8"?>
<svg width="150px" height="28px" viewBox="0 0 150 28" version="1.1" xmlns="http://www.w3.org/2000/svg" xmlns:xlink="http://www.w3.org/1999/xlink">
    <!-- Generator: Sketch 57.1 (83088) - https://sketch.com -->
    <title>Group 7 Copy 3</title>
    <desc>Created with Sketch.</desc>
    <g id="Logo" stroke="none" stroke-width="1" fill="none" fill-rule="evenodd">
        <g id="Logo_web" transform="translate(-16.000000, -29.000000)">
            <g id="Group-7-Copy-3" transform="translate(16.000000, 29.000000)">
                <path d="M7.196,7.952 L10.752,7.952 L11.228,11.956 L7.196,11.956 L7.196,15.316 C7.196,15.8760028 7.34066522,16.3193317 7.63,16.646 C7.91933478,16.9726683 8.30666424,17.136 8.792,17.136 C9.46400336,17.136 10.1173302,16.9586684 10.752,16.604 L12.208,20.076 C11.8533316,20.3746682 11.2980038,20.6499987 10.542,20.902 C9.78599622,21.1540013 9.09066984,21.28 8.456,21.28 C7.3359944,21.28 6.29067152,21.0746687 5.32,20.664 C4.34932848,20.2533313 3.57000294,19.6420041 2.982,18.83 C2.39399706,18.0179959 2.1,17.0333391 2.1,15.876 L2.1,11.956 L0,11.956 L0,7.952 L2.1,7.952 L2.1,4.284 L7.196,3.584 L7.196,7.952 Z M28.14,7.392 L22.792,20.972 L22.792,27.412 L17.976,27.412 L17.976,20.972 L13.048,8.232 L17.752,6.888 L20.468,15.064 L23.072,7.392 L28.14,7.392 Z M43.848,14 C43.848,16.3706785 43.1993398,18.1766605 41.902,19.418 C40.6046602,20.6593395 38.8546777,21.28 36.652,21.28 C36.0173302,21.28 35.4200028,21.1866676 34.86,21 L34.86,27.412 L29.764,27.412 L29.764,7.42 L32.312,7.42 L33.096,8.204 C33.6560028,7.81199804 34.2579968,7.4993345 34.902,7.266 C35.5460032,7.0326655 36.2039966,6.916 36.876,6.916 C38.9666771,6.916 40.6513269,7.51332736 41.93,8.708 C43.2086731,9.90267264 43.848,11.666655 43.848,14 Z M38.584,14.028 C38.584,13.0013282 38.3693355,12.2126694 37.94,11.662 C37.5106645,11.1113306 36.8946707,10.836 36.092,10.836 C35.699998,10.836 35.2893355,10.9759986 34.86,11.256 L34.86,16.996 C35.401336,17.2386679 35.8866645,17.36 36.316,17.36 C36.9693366,17.36 37.5106645,17.0613363 37.94,16.464 C38.3693355,15.8666637 38.584,15.0546718 38.584,14.028 Z M52.276,6.916 C53.676007,6.916 54.8613285,7.23333016 55.832,7.868 C56.8026715,8.50266984 57.5353309,9.35199468 58.03,10.416 C58.5246691,11.4800053 58.772,12.6653268 58.772,13.972 L58.772,15.456 L50.512,15.456 C50.6986676,16.0346696 51.0486641,16.4873317 51.562,16.814 C52.0753359,17.1406683 52.7519958,17.304 53.592,17.304 C54.8800064,17.304 56.1213274,16.9960031 57.316,16.38 L58.744,19.824 C58.1839972,20.2346687 57.3766719,20.5799986 56.322,20.86 C55.2673281,21.1400014 54.1893388,21.28 53.088,21.28 C51.5013254,21.28 50.0966728,21.009336 48.874,20.468 C47.6513272,19.926664 46.6946701,19.1193387 46.004,18.046 C45.3133299,16.9726613 44.968,15.6893408 44.968,14.196 C44.968,12.721326 45.2853302,11.4333388 45.92,10.332 C46.5546698,9.23066116 47.4273278,8.38600294 48.538,7.798 C49.6486722,7.20999706 50.8946598,6.916 52.276,6.916 Z M52.136,11.004 C51.669331,11.004 51.2540018,11.199998 50.89,11.592 C50.5259982,11.984002 50.3533332,12.4319975 50.372,12.936 L53.9,12.936 C53.9,12.469331 53.7506682,12.0306687 53.452,11.62 C53.1533318,11.2093313 52.7146696,11.004 52.136,11.004 Z M73.976,20.972 L71.4,20.972 L70.644,19.992 C70.0839972,20.384002 69.4820032,20.6966655 68.838,20.93 C68.1939968,21.1633345 67.5360034,21.28 66.864,21.28 C64.7733229,21.28 63.0886731,20.6826726 61.81,19.488 C60.5313269,18.2933274 59.892,16.529345 59.892,14.196 C59.892,11.8253215 60.5406602,10.0193395 61.838,8.778 C63.1353398,7.53666046 64.8853223,6.916 67.088,6.916 C67.7226698,6.916 68.3199972,7.0093324 68.88,7.196 L68.88,1.512 L73.976,1.204 L73.976,20.972 Z M67.648,17.36 C68.0586687,17.36 68.4693313,17.2200014 68.88,16.94 L68.88,11.2 C68.338664,10.9573321 67.8533355,10.836 67.424,10.836 C66.7706634,10.836 66.2293355,11.1346637 65.8,11.732 C65.3706645,12.3293363 65.156,13.1413282 65.156,14.168 C65.156,15.1946718 65.3706645,15.9833306 65.8,16.534 C66.2293355,17.0846694 66.8453293,17.36 67.648,17.36 Z M82.376,2.8 C82.376,3.5466704 82.1006694,4.19066396 81.55,4.732 C80.9993306,5.27333604 80.3413372,5.544 79.576,5.544 C78.8293296,5.544 78.185336,5.27333604 77.644,4.732 C77.102664,4.19066396 76.832,3.5466704 76.832,2.8 C76.832,2.03466284 77.102664,1.37666942 77.644,0.826 C78.185336,0.27533058 78.8293296,1.77635684e-14 79.576,1.77635684e-14 C80.3413372,1.77635684e-14 80.9993306,0.27533058 81.55,0.826 C82.1006694,1.37666942 82.376,2.03466284 82.376,2.8 Z M82.152,7.392 L82.152,20.972 L77.056,20.972 L77.056,7.392 L82.152,7.392 Z M98.196,21.42 C98.196,22.5773391 97.8833365,23.6086621 97.258,24.514 C96.6326635,25.4193379 95.755339,26.1286641 94.626,26.642 C93.496661,27.1553359 92.194674,27.412 90.72,27.412 C89.9359961,27.412 88.9000064,27.276668 87.612,27.006 C86.3239936,26.735332 85.2880039,26.3480025 84.504,25.844 L86.044,22.26 C86.8653374,22.6706687 87.6213299,22.9459993 88.312,23.086 C89.0026701,23.2260007 89.6839966,23.296 90.356,23.296 C91.1586707,23.296 91.8166641,23.1140018 92.33,22.75 C92.8433359,22.3859982 93.1,21.933336 93.1,21.392 L93.1,20.916 C92.4093299,21.1586679 91.7373366,21.28 91.084,21.28 C88.9933229,21.28 87.3086731,20.6826726 86.03,19.488 C84.7513269,18.2933274 84.112,16.529345 84.112,14.196 C84.112,11.8253215 84.7606602,10.0193395 86.058,8.778 C87.3553398,7.53666046 89.1053223,6.916 91.308,6.916 C92.6520067,6.916 93.8746612,7.36399552 94.976,8.26 L95.648,7.42 L98.196,7.42 L98.196,21.42 Z M93.1,16.94 L93.1,11.2 C92.558664,10.9573321 92.0733355,10.836 91.644,10.836 C90.9906634,10.836 90.4493355,11.1346637 90.02,11.732 C89.5906645,12.3293363 89.376,13.1413282 89.376,14.168 C89.376,15.1946718 89.5906645,15.9833306 90.02,16.534 C90.4493355,17.0846694 91.0653293,17.36 91.868,17.36 C92.2786687,17.36 92.6893313,17.2200014 93.1,16.94 Z M106.484,2.8 C106.484,3.5466704 106.208669,4.19066396 105.658,4.732 C105.107331,5.27333604 104.449337,5.544 103.684,5.544 C102.93733,5.544 102.293336,5.27333604 101.752,4.732 C101.210664,4.19066396 100.94,3.5466704 100.94,2.8 C100.94,2.03466284 101.210664,1.37666942 101.752,0.826 C102.293336,0.27533058 102.93733,1.77635684e-14 103.684,1.77635684e-14 C104.449337,1.77635684e-14 105.107331,0.27533058 105.658,0.826 C106.208669,1.37666942 106.484,2.03466284 106.484,2.8 Z M106.26,7.392 L106.26,20.972 L101.164,20.972 L101.164,7.392 L106.26,7.392 Z M115.136,7.952 L118.692,7.952 L119.168,11.956 L115.136,11.956 L115.136,15.316 C115.136,15.8760028 115.280665,16.3193317 115.57,16.646 C115.859335,16.9726683 116.246664,17.136 116.732,17.136 C117.404003,17.136 118.05733,16.9586684 118.692,16.604 L120.148,20.076 C119.793332,20.3746682 119.238004,20.6499987 118.482,20.902 C117.725996,21.1540013 117.03067,21.28 116.396,21.28 C115.275994,21.28 114.230672,21.0746687 113.26,20.664 C112.289328,20.2533313 111.510003,19.6420041 110.922,18.83 C110.333997,18.0179959 110.04,17.0333391 110.04,15.876 L110.04,11.956 L107.94,11.956 L107.94,7.952 L110.04,7.952 L110.04,4.284 L115.136,3.584 L115.136,7.952 Z M126.504,11.06 C126.055998,11.06 125.510003,11.1393325 124.866,11.298 C124.221997,11.4566675 123.638669,11.6479989 123.116,11.872 L121.772,8.204 C122.556004,7.84933156 123.489328,7.54600126 124.572,7.294 C125.654672,7.04199874 126.718661,6.916 127.764,6.916 C129.574676,6.916 130.965328,7.41999496 131.936,8.428 C132.906672,9.43600504 133.392,10.8173246 133.392,12.572 L133.392,20.972 L130.928,20.972 L129.472,19.572 C128.575996,20.7106724 127.558672,21.28 126.42,21.28 C124.739992,21.28 123.470671,20.8600042 122.612,20.02 C121.753329,19.1799958 121.324,18.0413405 121.324,16.604 C121.324,13.9533201 123.097316,12.628 126.644,12.628 L128.268,12.628 C128.193333,12.1053307 128.002002,11.7133346 127.694,11.452 C127.385998,11.1906654 126.989336,11.06 126.504,11.06 Z M126.728,15.428 C126.391998,15.428 126.116668,15.5306656 125.902,15.736 C125.687332,15.9413344 125.58,16.2026651 125.58,16.52 C125.58,16.8000014 125.668666,17.0286658 125.846,17.206 C126.023334,17.3833342 126.242665,17.472 126.504,17.472 C127.08267,17.472 127.679997,17.2200025 128.296,16.716 L128.296,15.428 L126.728,15.428 Z M141.456,1.204 L141.456,20.972 L136.36,20.972 L136.36,1.512 L141.456,1.204 Z" id="typedigital" fill="#000000" fill-rule="nonzero"></path>
                <path d="M144.5,15.5 L144.5,20.5 L149.5,20.5 L149.5,15.5 L144.5,15.5 Z" id="Rectangle" stroke="#F45A5F" fill="#F45A5F"></path>
            </g>
        </g>
    </g>
</svg>